<?xml version="1.0" encoding="UTF-8" standalone="no"?>
<svg
   xmlns:dc="http://purl.org/dc/elements/1.1/"
   xmlns:cc="http://creativecommons.org/ns#"
   xmlns:rdf="http://www.w3.org/1999/02/22-rdf-syntax-ns#"
   xmlns:svg="http://www.w3.org/2000/svg"
   xmlns="http://www.w3.org/2000/svg"
   width="41.285683mm"
   height="36.75436mm"
   viewBox="0 0 41.285681 36.75436"
   version="1.1"
   id="svg3394">
  <defs
     id="defs3388" />
  <metadata
     id="metadata3391">
    <rdf:RDF>
      <cc:Work
         rdf:about="">
        <dc:format>image/svg+xml</dc:format>
        <dc:type
           rdf:resource="http://purl.org/dc/dcmitype/StillImage" />
        <dc:title></dc:title>
      </cc:Work>
    </rdf:RDF>
  </metadata>
  <g
     id="layer1"
     transform="translate(-93.097741,-126.19594)">
    <g
       id="g3407"
       transform="matrix(0.13316312,0,0,0.13316312,156.4611,12.897392)">
      <path
         d="m -401.0203,935.87705 c -3.1107,0.49426 -6.2984,0.75273 -9.5452,0.75273 -15.5126,0 -29.6603,-5.85406 -40.3436,-15.48085 4.7613,-4.4665 10.9736,-7.40034 17.8524,-8.0261 0.6394,0.33102 1.2788,0.66657 1.9136,1.00213 10.0938,5.34166 19.766,11.38164 28.9438,18.05192 0.4716,1.19712 0.8661,2.43504 1.179,3.70017"
         style="fill:#e6e6e6;fill-opacity:1;fill-rule:nonzero;stroke:none;stroke-width:0.453452"
         id="path3375" />
      <path
         d="m -401.0203,935.87705 c -3.1107,0.49426 -6.2984,0.75273 -9.5452,0.75273 -15.5126,0 -29.6603,-5.85406 -40.3436,-15.48085 4.7613,-4.4665 10.9736,-7.40034 17.8524,-8.0261 0.6394,0.33102 1.2788,0.66657 1.9136,1.00213 10.0938,5.34166 19.766,11.38164 28.9438,18.05192 0.4716,1.19712 0.8661,2.43504 1.179,3.70017 z"
         style="fill:none;stroke:#000000;stroke-width:4;stroke-linecap:butt;stroke-linejoin:round;stroke-miterlimit:10;stroke-dasharray:none;stroke-opacity:1"
         id="path3377" />
      <path
         d="m -263.5564,1054.0737 c 1.1699,0.1859 2.3489,0.3496 3.5369,0.4852"
         style="fill:#000000;fill-opacity:1;fill-rule:nonzero;stroke:#000000;stroke-width:0.453452;stroke-linecap:butt;stroke-linejoin:miter;stroke-miterlimit:10;stroke-dasharray:none;stroke-opacity:1"
         id="path3379" />
      <path
         d="m -424.8356,853.08111 -5.5004,0.41718 c 1.8229,-0.17232 3.6549,-0.31289 5.5004,-0.41718"
         style="fill:#000000;fill-opacity:1;fill-rule:nonzero;stroke:none;stroke-width:0.453452"
         id="path3381" />
      <path
         d="m -424.8356,853.08111 -5.5004,0.41718 c 1.8229,-0.17232 3.6549,-0.31289 5.5004,-0.41718 z"
         style="fill:none;stroke:#000000;stroke-width:0.453452;stroke-linecap:butt;stroke-linejoin:miter;stroke-miterlimit:10;stroke-dasharray:none;stroke-opacity:1"
         id="path3383" />
      <path
         d="m -374.7066,914.82322 c -4.9744,11.04609 -7.7994,23.27569 -7.9354,36.14466 -6.9106,-6.371 -14.2021,-12.3475 -21.8247,-17.88415 -9.1778,-6.67028 -18.85,-12.71026 -28.9438,-18.05192 -0.6348,-0.33556 -1.2742,-0.67111 -1.9136,-1.00213 -5.2509,-2.72525 -10.6198,-5.25551 -16.0884,-7.58625 -11.3545,-4.80659 -18.9634,-11.75801 -21.7295,-22.46855 11.1232,0.97492 22.0287,2.70257 32.6667,5.13761 3.4916,0.79808 6.956,1.67324 10.3886,2.62095 3.3873,0.93412 6.7474,1.94078 10.0712,3.01999 v 0 c 1.3286,0.43078 2.6436,0.87517 3.9632,1.32408 13.8938,4.77485 27.2116,10.77856 39.8312,17.89322 0.5033,0.27661 1.0067,0.56228 1.51,0.85249"
         style="fill:#ffffff;fill-opacity:1;fill-rule:nonzero;stroke:none;stroke-width:0.453452"
         id="path3385" />
      <path
         d="m -374.7066,914.82322 c -4.9744,11.04609 -7.7994,23.27569 -7.9354,36.14466 -6.9106,-6.371 -14.2021,-12.3475 -21.8247,-17.88415 -9.1778,-6.67028 -18.85,-12.71026 -28.9438,-18.05192 -0.6348,-0.33556 -1.2742,-0.67111 -1.9136,-1.00213 -5.2509,-2.72525 -10.6198,-5.25551 -16.0884,-7.58625 -11.3545,-4.80659 -18.9634,-11.75801 -21.7295,-22.46855 11.1232,0.97492 22.0287,2.70257 32.6667,5.13761 3.4916,0.79808 6.956,1.67324 10.3886,2.62095 3.3873,0.93412 6.7474,1.94078 10.0712,3.01999 v 0 c 1.3286,0.43078 2.6436,0.87517 3.9632,1.32408 13.8938,4.77485 27.2116,10.77856 39.8312,17.89322 0.5033,0.27661 1.0067,0.56228 1.51,0.85249 z"
         style="fill:none;stroke:#000000;stroke-width:4;stroke-linecap:butt;stroke-linejoin:miter;stroke-miterlimit:10;stroke-dasharray:none;stroke-opacity:1"
         id="path3387" />
      <path
         d="m -326.9081,1011.3451 c -8.729,-12.93285 -18.6686,-24.97155 -29.6648,-35.95416 8.2845,-7.05118 14.6329,-16.3016 18.1471,-26.84889 0.7301,-2.18156 1.3332,-4.41662 1.8093,-6.70202 29.751,25.75607 53.14,58.65857 67.5009,96.04517 l 0.5668,1.4969 c 1.8183,4.8247 3.4825,9.722 4.9925,14.6914 -3.2558,-0.512 -6.4526,-1.1967 -9.5815,-2.0492 -8.0261,-2.1815 -15.6123,-5.4414 -22.586,-9.6132 -7.9993,-4.7793 -15.5175,-10.4874 -21.3444,-17.6941 -2.6096,-3.2272 -9.8399,-13.3719 -9.8399,-13.3719"
         style="fill:#ffffff;fill-opacity:1;fill-rule:nonzero;stroke:none;stroke-width:0.453452"
         id="path3389" />
      <path
         d="m -326.9081,1011.3451 c -8.729,-12.93285 -18.6686,-24.97155 -29.6648,-35.95416 8.2845,-7.05118 14.6329,-16.3016 18.1471,-26.84889 0.7301,-2.18156 1.3332,-4.41662 1.8093,-6.70202 29.751,25.75607 53.14,58.65857 67.5009,96.04517 l 0.5668,1.4969 c 1.8183,4.8247 3.4825,9.722 4.9925,14.6914 -3.2558,-0.512 -6.4526,-1.1967 -9.5815,-2.0492 -8.0261,-2.1815 -15.6123,-5.4414 -22.586,-9.6132 -7.9993,-4.7793 -15.5175,-10.4874 -21.3444,-17.6941 -2.6096,-3.2272 -9.8399,-13.3719 -9.8399,-13.3719 z"
         style="fill:none;stroke:#000000;stroke-width:4;stroke-linecap:butt;stroke-linejoin:miter;stroke-miterlimit:10;stroke-dasharray:none;stroke-opacity:1"
         id="path3391" />
      <path
         d="m -336.8932,941.59947 c -0.5986,2.28086 -1.111,4.59347 -1.5327,6.94235 -3.5142,10.54729 -9.8625,19.79771 -18.1471,26.84935 -0.5895,0.50287 -1.1926,0.99759 -1.8002,1.4778 -2.095,1.64603 -4.2987,3.16056 -6.6068,4.52545 -2.0596,1.22114 -4.1999,2.32212 -6.41,3.29387 -2.4269,1.06743 -5.2655,-0.15281 -6.1456,-2.6536 -1.1963,-3.39908 -2.1957,-6.89066 -2.9842,-10.46159 -1.3377,-6.0495 -2.0678,-12.32528 -2.1267,-18.75976 0,-0.28114 0,-0.56682 0,-0.84796 0,-0.33102 0,-0.66657 0.01,-0.99759 0.1361,-12.86897 2.9611,-25.09857 7.9354,-36.14466 13.4766,7.71775 26.1325,16.6961 37.8134,26.77634"
         style="fill:#000000;fill-opacity:1;fill-rule:nonzero;stroke:none;stroke-width:0.453452"
         id="path3393" />
      <path
         d="m -336.8932,941.59947 c -0.5986,2.28086 -1.111,4.59347 -1.5327,6.94235 -3.5142,10.54729 -9.8625,19.79771 -18.1471,26.84935 -0.5895,0.50287 -1.1926,0.99759 -1.8002,1.4778 -2.095,1.64603 -4.2987,3.16056 -6.6068,4.52545 -2.0596,1.22114 -4.1999,2.32212 -6.41,3.29387 -2.4269,1.06743 -5.2655,-0.15281 -6.1456,-2.6536 -1.1963,-3.39908 -2.1957,-6.89066 -2.9842,-10.46159 -1.3377,-6.0495 -2.0678,-12.32528 -2.1267,-18.75976 0,-0.28114 0,-0.56682 0,-0.84796 0,-0.33102 0,-0.66657 0.01,-0.99759 0.1361,-12.86897 2.9611,-25.09857 7.9354,-36.14466 13.4766,7.71775 26.1325,16.6961 37.8134,26.77634 z"
         style="fill:none;stroke:#000000;stroke-width:0.453452;stroke-linecap:butt;stroke-linejoin:miter;stroke-miterlimit:10;stroke-dasharray:none;stroke-opacity:1"
         id="path3395" />
      <path
         d="m -242.3208,876.79456 c 0.4757,0.2698 0.278,0.99442 -0.2689,0.98535 -0.5088,-0.009 -1.0185,-0.0127 -1.5286,-0.0127 -22.201,0 -42.5342,7.99436 -58.2776,21.25783 -0.4875,0.40766 -0.9691,0.82121 -1.4475,1.24337 -0.2067,0.18229 -0.5173,0.17412 -0.7132,-0.0199 -8.6279,-8.56752 -18.2859,-16.09483 -28.7693,-22.38602 0.077,-0.0453 0.1542,-0.0952 0.2358,-0.14057 13.5219,-8.03517 29.3111,-12.65131 46.1841,-12.65131 16.2127,0 31.4256,4.25837 44.5852,11.724"
         style="fill:#000000;fill-opacity:1;fill-rule:nonzero;stroke:none;stroke-width:0.453452"
         id="path3397" />
      <path
         d="m -242.3208,876.79456 c 0.4757,0.2698 0.278,0.99442 -0.2689,0.98535 -0.5088,-0.009 -1.0185,-0.0127 -1.5286,-0.0127 -22.201,0 -42.5342,7.99436 -58.2776,21.25783 -0.4875,0.40766 -0.9691,0.82121 -1.4475,1.24337 -0.2067,0.18229 -0.5173,0.17412 -0.7132,-0.0199 -8.6279,-8.56752 -18.2859,-16.09483 -28.7693,-22.38602 0.077,-0.0453 0.1542,-0.0952 0.2358,-0.14057 13.5219,-8.03517 29.3111,-12.65131 46.1841,-12.65131 16.2127,0 31.4256,4.25837 44.5852,11.724 z"
         style="fill:none;stroke:#000000;stroke-width:0.453452;stroke-linecap:butt;stroke-linejoin:round;stroke-miterlimit:10;stroke-dasharray:none;stroke-opacity:1"
         id="path3399" />
      <path
         d="m -336.8932,941.59947 c 29.751,25.75607 53.14,58.65853 67.5009,96.04573 0.1904,0.4987 0.3809,0.9975 0.5668,1.4963 1.8179,4.8234 3.4816,9.7193 4.9911,14.6878 9e-4,0 0,0 0.01,0 1.1685,0.1855 2.3466,0.3483 3.5328,0.4843 3.5011,0.4126 7.0648,0.6258 10.6788,0.6258 2.8373,0 5.6464,-0.1311 8.4156,-0.3882 0.01,-5e-4 0.01,0.01 0.01,0.011 -7.4026,6.9088 -13.0567,15.6649 -16.2426,25.5302 v 0 c -1.8859,5.845 -2.9062,12.0755 -2.9062,18.5417 0,9.137 2.0337,17.8025 5.6709,25.5651 0.2521,0.5374 1.0198,0.5251 1.2483,-0.022 7.0739,-17.0044 19.1905,-31.3879 34.4805,-41.2777 14.1482,-9.1643 31.0161,-14.4787 49.1225,-14.4787 0.2199,0 0.4393,9e-4 0.6593,0 0.8724,0.01 1.4107,-0.9518 0.9481,-1.6914 -7.5608,-12.1103 -19.3075,-21.3467 -33.2085,-25.6812 -2.689,-0.8389 -5.4596,-1.4964 -8.2937,-1.9499 -3.1514,-0.5124 -6.3846,-0.7754 -9.6812,-0.7754 -1.1812,0 -2.3584,0.036 -3.5219,0.1043 0,0 -0.01,0 -0.01,0 -1.4193,-7.7431 -3.21,-15.3503 -5.3539,-22.8173 v 0 c -13.7537,-47.93891 -66.9844,-118.21943 -110.543,-141.61756 -10.2344,-5.50037 -20.6729,-10.84203 -31.9593,-14.4107 -14.3654,-4.54359 -29.6648,-6.99677 -45.5357,-6.99677 -2.9519,0 -5.8858,0.0862 -8.7924,0.25394 l -5.5004,0.41717 c -29.1429,3.43717 -43.5023,14.88638 -43.5028,25.71254 5e-4,4.6e-4 5e-4,4.6e-4 5e-4,9.1e-4 0.1492,1.61248 0.302,3.23175 0.6951,4.75853 9e-4,0.003 0,0.005 0.01,0.005 11.1213,0.97492 22.025,2.70257 32.6617,5.13715 3.4915,0.79808 6.9559,1.67324 10.3885,2.62096 3.3873,0.93411 6.7474,1.94077 10.0712,3.01999 v 0 c 1.3287,0.43077 2.6437,0.87516 3.9632,1.32408 13.8938,4.77484 27.2117,10.77855 39.8312,17.89321 0.5034,0.27661 1.0067,0.56228 1.51,0.85249 13.4766,7.71775 26.1325,16.6961 37.8134,26.77634 z"
         style="fill:#000000;fill-opacity:1;fill-rule:nonzero;stroke:none;stroke-width:0;stroke-miterlimit:10;stroke-dasharray:none;paint-order:stroke fill markers"
         id="path3401" />
      <path
         d="m -336.6166,941.83989 c 29.751,25.75607 53.14,58.65851 67.5009,96.04571 0.1904,0.4987 0.3809,0.9975 0.5668,1.4963 1.8179,4.8234 3.4816,9.7193 4.9911,14.6878 9e-4,0 0,0 0.01,0 1.1685,0.1855 2.3466,0.3483 3.5328,0.4843 3.5011,0.4126 7.0648,0.6258 10.6788,0.6258 2.8373,0 5.6464,-0.1311 8.4156,-0.3882 0.01,-5e-4 0.01,0.01 0.01,0.011 -7.4026,6.9088 -13.0567,15.6649 -16.2426,25.5302 v 0 c -1.8859,5.845 -2.9062,12.0755 -2.9062,18.5417 0,9.137 2.0337,17.8025 5.6709,25.5651 0.2521,0.5374 1.0198,0.5251 1.2483,-0.022 7.0739,-17.0044 19.1905,-31.3879 34.4805,-41.2777 14.1482,-9.1643 31.0161,-14.4787 49.1225,-14.4787 0.2199,0 0.4393,9e-4 0.6593,0 0.8724,0.01 1.4107,-0.9518 0.9481,-1.6914 -7.5608,-12.1103 -19.3075,-21.3467 -33.2085,-25.6812 -2.689,-0.8389 -5.4596,-1.4964 -8.2937,-1.9499 -3.1514,-0.5124 -6.3846,-0.7754 -9.6812,-0.7754 -1.1812,0 -2.3584,0.036 -3.5219,0.1043 0,0 -0.01,0 -0.01,0 -1.4193,-7.7431 -3.21,-15.3503 -5.3539,-22.8173 v 0 c -13.7537,-47.93889 -66.9844,-118.21941 -110.543,-141.61754 -10.2344,-5.50037 -20.6729,-10.84203 -31.9593,-14.4107 -14.3654,-4.54359 -29.6648,-6.99677 -45.5357,-6.99677 -2.9519,0 -5.8858,0.0862 -8.7924,0.25394 l -5.5004,0.41717 c -29.1429,3.43717 -43.5023,14.88638 -43.5028,25.71254 5e-4,4.6e-4 5e-4,4.6e-4 5e-4,9.1e-4 0.1492,1.61248 0.302,3.23175 0.6951,4.75853 9e-4,0.003 0,0.005 0.01,0.005 11.1213,0.97492 22.025,2.70257 32.6617,5.13715 3.4915,0.79808 6.9559,1.67324 10.3885,2.62096 3.3873,0.93411 6.7474,1.94077 10.0712,3.01999 v 0 c 1.3287,0.43077 2.6437,0.87516 3.9632,1.32408 13.8938,4.77484 27.2117,10.77855 39.8312,17.89321 0.5034,0.27661 1.0067,0.56228 1.51,0.85249 13.4766,7.71775 26.1325,16.6961 37.8134,26.77634 z"
         style="fill:none;stroke:#000000;stroke-width:4;stroke-linecap:butt;stroke-linejoin:miter;stroke-miterlimit:10;stroke-dasharray:none;stroke-opacity:1"
         id="path3403" />
      <path
         d="m -388.9596,871.30267 c 1.0661,1.12456 1.0896,2.89393 0.052,4.04434 -5.5157,6.11752 -13.5047,9.96098 -22.3928,9.96098 -5.0968,0 -9.8943,-1.26513 -14.1023,-3.49612 -0.1225,-0.0635 -0.2399,-0.12696 -0.3583,-0.19498 -2.7637,-1.51272 -5.2663,-3.44442 -7.4189,-5.7135 -1.0633,-1.12048 -1.1014,-2.89075 -0.063,-4.03391 0.01,-0.007 0.012,-0.0131 0.018,-0.0199 1.1518,-1.28327 2.4169,-2.46224 3.7773,-3.53239 1.2969,-1.01573 2.6844,-1.9317 4.14,-2.72978 4.2942,-2.35341 9.2232,-3.6911 14.4651,-3.6911 5.9992,0 11.5857,1.75033 16.2789,4.77032 v 0 c 2.0505,1.31591 3.9305,2.87579 5.5992,4.63609"
         style="fill:#ffffff;fill-opacity:1;fill-rule:nonzero;stroke:none;stroke-width:0.453452"
         id="path3405" />
    </g>
  </g>
</svg>
